<?xml version="1.0" encoding="UTF-8"?>
<svg id="Camada_1" data-name="Camada 1" xmlns="http://www.w3.org/2000/svg" viewBox="0 0 32.03 32.03">
  <defs>
    <style>
      .cls-1 {
        fill: #df3737;
      }

      .cls-2 {
        fill: #fff;
      }
    </style>
  </defs>
  <path class="cls-1" d="M31.86,12.75c-.08-.88-.38-1.51-1.25-1.81-4.84-1.32-9.59-3.02-14.48-4.14-4.62,1.17-9.34,2.38-13.86,3.89-.45.15-1.26.35-1.58.69-.12.12-.27.42-.33.59-.39,1.25-.31,5.32-.21,6.78.13,1.96.38,2.07,2.12,2.66,3.61,1.22,7.91,2.52,11.6,3.46,2.09.53,2.62.43,4.68-.1,4.09-1.05,8.16-2.58,12.25-3.66.78-.3,1.01-.97,1.07-1.74.14-1.68.15-4.94,0-6.62Z"/>
  <g>
    <path class="cls-2" d="M16.8,16.24l-.02-1.15c-2.29-1.3-5.58-1.1-5.11,2.3.21,1.5,1.71,2.05,2.87,1.17.02,1.22-1.85.87-2.63.49l-.37,1.28c1.22.55,3.14.91,4.26-.01.13-.11.49-.59.52-.71.19-.88-.14-2.41,0-3.37h.49ZM14.59,17.53c-1.56.94-1.79-2.4,0-1.9v1.9Z"/>
    <path class="cls-2" d="M19,14.65v-1.77s.1-.07.1-.12l-.16-.18h-2.14v1.47s.49,0,.49,0v4.53c1.97.67,4.94.71,4.78-2.14-.1-1.82-1.45-2.44-3.06-1.78ZM19.02,17.51c.03-.37-.19-1.74.18-1.86,1.61-.53,1.33,3.03-.18,1.86Z"/>
    <path class="cls-2" d="M3.94,14.59c0-.41.61-.54.9-.32.14.1.05.41.28.48l1.39.02-.02-1.45c-1.3-.42-4.08-.6-4.27,1.27-.09.91.23,1.3.95,1.75.29.18,2.21.86,1.39,1.44-.47.34-.77-.34-1.02-.47-.16-.08-1.37-.4-1.44-.34l.02,1.58c1.32.51,4.4.9,4.52-1.15.11-1.94-2.7-1.99-2.7-2.81Z"/>
    <path class="cls-2" d="M6.76,17.04c.24,2.24,3.21,2.41,4.61,1.23l-.2-1.05c-.8.21-2.4.88-2.57-.37h2.82c.38-3.4-5.04-3.4-4.65.18ZM9.57,16.24l-1.1-.06c.14-.79,1.24-.82,1.1.06Z"/>
    <path class="cls-2" d="M26.68,14.44c-.85.14-1.59,1.02-1.68,1.87-.35,3.29,4.1,3.33,4.69,1.26.63-2.21-.87-3.49-3.01-3.13ZM27.5,17.71c-.99.14-1.03-1.86-.34-2.06,1.13-.34,1.19,1.94.34,2.06Z"/>
    <path class="cls-2" d="M24.87,17.47h-.49s0-2.94,0-2.94h-2.2v1.35s.49,0,.49,0v2.26c0,.88,1.4.97,2,.65.39-.21.14-.93.21-1.32Z"/>
    <polygon class="cls-2" points="24.38 14.16 24.27 12.87 22.67 12.81 22.67 14.16 24.38 14.16"/>
    <path class="cls-2" d="M29.37,12.72c-.87.26-.39,1.68.44,1.55,1.07-.17.92-1.95-.44-1.55Z"/>
  </g>
</svg>